<svg width="77" height="40" viewBox="0 0 77 40" fill="none" xmlns="http://www.w3.org/2000/svg">
<path d="M74 23C75.6569 23 77 21.6569 77 20C77 18.3431 75.6569 17 74 17V20V23ZM0.878677 17.8787C-0.292892 19.0503 -0.292892 20.9497 0.878677 22.1213L19.9706 41.2132C21.1421 42.3848 23.0416 42.3848 24.2132 41.2132C25.3848 40.0416 25.3848 38.1421 24.2132 36.9706L7.24264 20L24.2132 3.02944C25.3848 1.85786 25.3848 -0.0416298 24.2132 -1.2132C23.0416 -2.38478 21.1421 -2.38478 19.9706 -1.2132L0.878677 17.8787ZM74 20V17L3 17V20V23L74 23V20Z" fill="#6E9CD2"/>
</svg>
