<svg width="55" height="55" viewBox="0 0 55 55" fill="none" xmlns="http://www.w3.org/2000/svg">
<path d="M29.6792 2.68846C31.6437 -0.249352 36.2093 0.862152 36.604 4.37409L37.5044 12.3434C37.7961 14.93 38.6478 17.422 40.0005 19.6459C41.3532 21.8698 43.1745 23.772 45.3373 25.2206L52.0021 29.6792L52.0012 29.679C54.943 31.6442 53.8313 36.2115 50.3153 36.6047L50.3146 36.6035L42.3471 37.5044C39.761 37.7966 37.2698 38.649 35.0464 40.0019C32.823 41.3547 30.921 43.1754 29.4729 45.338L25.0109 52C23.0458 54.9416 18.4796 53.8315 18.0856 50.3163L17.189 42.3478C16.8965 39.7613 16.0442 37.2694 14.6908 35.0459C13.3375 32.8224 11.5157 30.9208 9.35258 29.4729L2.68868 25.0104C-0.248961 23.0458 0.862268 18.4801 4.37431 18.0857L12.3427 17.189L12.826 17.1277C15.2398 16.7886 17.5611 15.961 19.6463 14.6922C21.8704 13.339 23.7723 11.5166 25.2205 9.35329L29.6792 2.68846ZM30.7169 13.5004C28.7414 16.3541 26.1896 18.7634 23.2221 20.569C20.2546 22.3746 16.9421 23.5336 13.4997 23.9765C16.3531 25.9516 18.763 28.5025 20.5687 31.4694C22.3743 34.4361 23.5333 37.7483 23.9767 41.1899C25.952 38.3374 28.5033 35.929 31.4699 34.124C34.4365 32.3189 37.748 31.1599 41.1892 30.7167C38.3364 28.741 35.9275 26.1895 34.1226 23.2224C32.3175 20.2551 31.1596 16.9423 30.7169 13.5004Z" fill="#7F2025" stroke="#7F2025" stroke-width="2"/>
</svg>
